<?xml version="1.0" encoding="utf-8"?><svg xmlns="http://www.w3.org/2000/svg" width="280" height="250" preserveAspectRatio="xMidYMid" xmlns:xlink="http://www.w3.org/1999/xlink" style="margin-right:-2px;display:block;background-repeat-y:initial;background-repeat-x:initial;background-color:rgb(241, 242, 243);animation-play-state:paused" ><style type="text/css" style="animation-play-state:paused" >text {
    text-anchor: middle; font-size: 54px; opacity: 0;
  }</style>


<g style="transform-origin:140px 125px;transform:matrix(1, 0, 0, 1, 0, 0);animation-play-state:paused" ><g transform="translate(140,125)" style="transform:matrix(1, 0, 0, 1, 140, 125);animation-play-state:paused" ><g transform="translate(0,0)" style="transform:matrix(1, 0, 0, 1, 0, 0);animation-play-state:paused" ><g class="path" style="transform-origin:-99.905px -3.6828px;animation-timing-function:linear;animation-play-state:paused;animation-name:static-0b6490c7-5f93-47b3-9efa-b027db71a69d;animation-iteration-count:infinite;animation-fill-mode:forwards;animation-duration:1s;animation-delay:-0.586667s" ><path d="M2.11 0L15.03 0L15.03 0Q15.03-1.16 14.19-1.32L14.19-1.32L14.19-1.32Q13.92-1.37 13.66-1.37L13.66-1.37L10.86-1.37L10.86-30.27L15.03-30.27L15.03-31.64L2.11-31.64L2.11-30.27L6.33-30.27L6.33-1.37L2.11-1.37L2.11 0" fill="#ee6123" stroke="none" stroke-width="none" transform="translate(-108.47500610351562,12.137199639214412)" style="transform:matrix(1, 0, 0, 1, -108.475, 12.1372);fill:rgb(238, 97, 35);animation-play-state:paused" ></path></g>
<g class="path" style="transform-origin:-76.23px 0.667199px;animation-timing-function:linear;animation-play-state:paused;animation-name:static-0b6490c7-5f93-47b3-9efa-b027db71a69d;animation-iteration-count:infinite;animation-fill-mode:forwards;animation-duration:1s;animation-delay:-0.513333s" ><path d="M29.00-1.32L29.00-1.32L26.63-1.32L26.63-12.71L26.63-12.71Q26.79-17.61 30.11-19.78L30.11-19.78L30.11-19.78Q31.54-20.67 33.01-20.67L33.01-20.67L33.01-20.67Q36.23-20.67 37.39-17.67L37.39-17.67L37.39-17.67Q37.86-16.45 37.86-14.92L37.86-14.92L37.86-4.48L37.86-4.48Q37.86-2.06 36.49-1.58L36.49-1.58L36.49-1.58Q35.70-1.32 33.91-1.32L33.91-1.32L33.91 0L45.77 0L45.77 0Q45.77-1.16 44.98-1.27L44.98-1.27L44.98-1.27Q44.77-1.32 44.46-1.32L44.46-1.32L41.82-1.32L41.82-14.40L41.82-14.40Q41.82-19.67 38.18-21.94L38.18-21.94L38.18-21.94Q36.49-22.94 34.54-22.94L34.54-22.94L34.54-22.94Q30.64-22.94 28.11-19.83L28.11-19.83L28.11-19.83Q27.16-18.62 26.58-17.14L26.58-17.14L26.37-22.41L18.72-22.41L18.72-21.09L22.68-21.09L22.68-4.48L22.68-4.48Q22.68-2.06 21.30-1.58L21.30-1.58L21.30-1.58Q20.51-1.32 18.72-1.32L18.72-1.32L18.72 0L30.32 0L30.32 0Q30.32-1.16 29.53-1.27L29.53-1.27L29.53-1.27Q29.32-1.32 29.00-1.32" fill="#ee6123" stroke="none" stroke-width="none" transform="translate(-108.47500610351562,12.137199639214412)" style="transform:matrix(1, 0, 0, 1, -108.475, 12.1372);fill:rgb(238, 202, 119);animation-play-state:paused" ></path></g>
<g class="path" style="transform-origin:-50.57px 0.7722px;animation-timing-function:linear;animation-play-state:paused;animation-name:static-0b6490c7-5f93-47b3-9efa-b027db71a69d;animation-iteration-count:infinite;animation-fill-mode:forwards;animation-duration:1s;animation-delay:-0.44s" ><path d="M57.11-0.90L57.11-0.90L57.11-0.90Q60.75-0.90 62.02-3.11L62.02-3.11L62.02-3.11Q62.49-3.90 62.49-4.85L62.49-4.85L62.49-4.85Q62.49-7.07 59.27-8.65L59.27-8.65L59.27-8.65Q58.59-9.02 57.01-9.70L57.01-9.70L57.01-9.70Q52.68-11.50 51.26-13.08L51.26-13.08L51.26-13.08Q49.73-14.82 49.73-17.14L49.73-17.14L49.73-17.14Q49.73-20.78 53.74-22.25L53.74-22.25L53.74-22.25Q55.58-22.94 57.74-22.94L57.74-22.94L57.74-22.94Q61.22-22.94 63.76-21.46L63.76-21.46L63.76-21.46Q63.76-22.99 64.49-23.20L64.49-23.20L64.49-23.20Q64.81-23.26 65.18-23.26L65.18-23.26L65.18-16.66L63.81-16.66L63.81-16.66Q63.70-21.52 58.43-21.57L58.43-21.57L58.43-21.57Q54.47-21.57 53.53-19.25L53.53-19.25L53.53-19.25Q53.26-18.62 53.26-17.93L53.26-17.93L53.26-17.93Q53.26-15.66 56.53-14.08L56.53-14.08L56.53-14.08Q57.27-13.71 58.85-13.08L58.85-13.08L58.85-13.08Q63.12-11.34 64.55-9.76L64.55-9.76L64.55-9.76Q66.08-8.07 66.08-5.75L66.08-5.75L66.08-5.75Q66.08-1.48 61.54-0.05L61.54-0.05L61.54-0.05Q59.80 0.53 57.74 0.53L57.74 0.53L57.74 0.53Q53.95 0.47 51.15-1.37L51.15-1.37L51.15-1.37Q51.15 0 50.47 0.21L50.47 0.21L50.47 0.21Q50.15 0.26 49.73 0.26L49.73 0.26L49.73-7.75L51.21-7.75L51.21-7.75Q51.31-0.95 57.11-0.90" fill="#ee6123" stroke="none" stroke-width="none" transform="translate(-108.47500610351562,12.137199639214412)" style="transform:matrix(1, 0, 0, 1, -108.475, 12.1372);fill:rgb(125, 176, 220);animation-play-state:paused" ></path></g>
<g class="path" style="transform-origin:-31.325px -1.8378px;animation-timing-function:linear;animation-play-state:paused;animation-name:static-0b6490c7-5f93-47b3-9efa-b027db71a69d;animation-iteration-count:infinite;animation-fill-mode:forwards;animation-duration:1s;animation-delay:-0.366667s" ><path d="M69.24-22.41L69.24-21.09L72.93-21.09L72.93-6.22L72.93-6.22Q73.30 0.37 79.00 0.58L79.00 0.58L79.00 0.58Q83.85 0.58 85.06-5.38L85.06-5.38L85.06-5.38Q85.06-5.43 85.06-5.48L85.06-5.48L83.64-5.75L83.64-5.75Q82.32-1.37 79.79-1.00L79.79-1.00L79.79-1.00Q76.94-1.11 76.89-5.06L76.89-5.06L76.89-21.09L85.06-21.09L85.06-22.41L76.89-22.41L76.89-28.53L72.93-27.42L72.93-22.41L69.24-22.41" fill="#ee6123" stroke="none" stroke-width="none" transform="translate(-108.47500610351562,12.137199639214412)" style="transform:matrix(1, 0, 0, 1, -108.475, 12.1372);fill:rgb(238, 97, 35);animation-play-state:paused" ></path></g>
<g class="path" style="transform-origin:-9.65001px 0.932199px;animation-timing-function:linear;animation-play-state:paused;animation-name:static-0b6490c7-5f93-47b3-9efa-b027db71a69d;animation-iteration-count:infinite;animation-fill-mode:forwards;animation-duration:1s;animation-delay:-0.293333s" ><path d="M105.94 0.53L105.94 0.53L105.94 0.53Q110.00 0.53 110.43-4.38L110.43-4.38L110.43-4.38Q110.48-4.69 110.48-4.96L110.48-4.96L109.11-5.01L109.11-5.01Q108.74-1.16 107.05-1.11L107.05-1.11L107.05-1.11Q105.68-1.21 105.63-3.85L105.63-3.85L105.63-14.98L105.63-14.98Q105.63-22.52 98.09-22.94L98.09-22.94L98.09-22.94Q97.61-22.94 97.14-22.94L97.14-22.94L97.14-22.94Q91.23-22.94 89.23-20.20L89.23-20.20L89.23-20.20Q88.59-19.30 88.59-18.40L88.59-18.40L88.59-18.40Q88.59-16.77 90.12-16.51L90.12-16.51L90.12-16.51Q90.39-16.45 90.65-16.45L90.65-16.45L90.65-16.45Q91.86-16.45 92.44-17.98L92.44-17.98L92.44-17.98Q93.18-19.93 93.45-20.30L93.45-20.30L93.45-20.30Q94.45-21.62 96.56-21.62L96.56-21.62L96.56-21.62Q101.51-21.30 101.67-16.19L101.67-16.19L101.67-12.87L101.67-12.87Q89.28-12.87 87.49-7.70L87.49-7.70L87.49-7.70Q87.17-6.70 87.17-5.54L87.17-5.54L87.17-5.54Q87.17-1.53 90.70-0.05L90.70-0.05L90.70-0.05Q92.13 0.53 93.71 0.53L93.71 0.53L93.71 0.53Q97.56 0.53 100.20-2.11L100.20-2.11L100.20-2.11Q101.14-3.11 101.62-4.22L101.62-4.22L101.62-4.22Q102.25 0.47 105.94 0.53zM95.45-1.58L95.45-1.58L95.45-1.58Q92.23-1.58 91.49-4.80L91.49-4.80L91.49-4.80Q91.34-5.54 91.34-6.43L91.34-6.43L91.34-6.43Q91.34-9.97 95.40-10.92L95.40-10.92L95.40-10.92Q97.56-11.39 101.67-11.44L101.67-11.44L101.67-7.22L101.67-7.22Q100.88-3.59 97.82-2.11L97.82-2.11L97.82-2.11Q96.61-1.58 95.45-1.58" fill="#ee6123" stroke="none" stroke-width="none" transform="translate(-108.47500610351562,12.137199639214412)" style="transform:matrix(1, 0, 0, 1, -108.475, 12.1372);fill:rgb(238, 202, 119);animation-play-state:paused" ></path></g>
<g class="path" style="transform-origin:18.43px -3.6828px;animation-timing-function:linear;animation-play-state:paused;animation-name:static-0b6490c7-5f93-47b3-9efa-b027db71a69d;animation-iteration-count:infinite;animation-fill-mode:forwards;animation-duration:1s;animation-delay:-0.22s" ><path d="M131.68 0L143.07 0L143.07 0Q143.07-1.16 142.22-1.32L142.22-1.32L142.22-1.32Q141.96-1.37 141.70-1.37L141.70-1.37L139.90-1.37L127.83-31.64L125.88-31.64L114.06-1.37L110.74-1.37L110.74 0L120.13 0L120.13 0Q120.13-1.16 119.29-1.32L119.29-1.32L119.29-1.32Q119.02-1.37 118.76-1.37L118.76-1.37L116.17-1.37L120.13-11.60L131.15-11.60L135.11-1.37L131.68-1.37L131.68 0zM125.61-25.89L130.57-13.13L120.71-13.13L125.61-25.89" fill="#ee6123" stroke="none" stroke-width="none" transform="translate(-108.47500610351562,12.137199639214412)" style="transform:matrix(1, 0, 0, 1, -108.475, 12.1372);fill:rgb(125, 176, 220);animation-play-state:paused" ></path></g>
<g class="path" style="transform-origin:49.7px 0.667199px;animation-timing-function:linear;animation-play-state:paused;animation-name:static-0b6490c7-5f93-47b3-9efa-b027db71a69d;animation-iteration-count:infinite;animation-fill-mode:forwards;animation-duration:1s;animation-delay:-0.146667s" ><path d="M154.93-1.32L154.93-1.32L152.56-1.32L152.56-12.71L152.56-12.71Q152.72-17.61 156.04-19.78L156.04-19.78L156.04-19.78Q157.46-20.67 158.94-20.67L158.94-20.67L158.94-20.67Q162.16-20.67 163.32-17.67L163.32-17.67L163.32-17.67Q163.79-16.45 163.79-14.92L163.79-14.92L163.79-4.48L163.79-4.48Q163.79-2.06 162.42-1.58L162.42-1.58L162.42-1.58Q161.63-1.32 159.84-1.32L159.84-1.32L159.84 0L171.70 0L171.70 0Q171.70-1.16 170.91-1.27L170.91-1.27L170.91-1.27Q170.70-1.32 170.38-1.32L170.38-1.32L167.75-1.32L167.75-14.40L167.75-14.40Q167.75-19.67 164.11-21.94L164.11-21.94L164.11-21.94Q162.42-22.94 160.47-22.94L160.47-22.94L160.47-22.94Q156.57-22.94 154.04-19.83L154.04-19.83L154.04-19.83Q153.09-18.62 152.51-17.14L152.51-17.14L152.30-22.41L144.65-22.41L144.65-21.09L148.61-21.09L148.61-4.48L148.61-4.48Q148.61-2.06 147.23-1.58L147.23-1.58L147.23-1.58Q146.44-1.32 144.65-1.32L144.65-1.32L144.65 0L156.25 0L156.25 0Q156.25-1.16 155.46-1.27L155.46-1.27L155.46-1.27Q155.25-1.32 154.93-1.32" fill="#ee6123" stroke="none" stroke-width="none" transform="translate(-108.47500610351562,12.137199639214412)" style="transform:matrix(1, 0, 0, 1, -108.475, 12.1372);fill:rgb(238, 97, 35);animation-play-state:paused" ></path></g>
<g class="path" style="transform-origin:75.36px 0.7722px;animation-timing-function:linear;animation-play-state:paused;animation-name:static-0b6490c7-5f93-47b3-9efa-b027db71a69d;animation-iteration-count:infinite;animation-fill-mode:forwards;animation-duration:1s;animation-delay:-0.0733333s" ><path d="M183.04-0.90L183.04-0.90L183.04-0.90Q186.68-0.90 187.95-3.11L187.95-3.11L187.95-3.11Q188.42-3.90 188.42-4.85L188.42-4.85L188.42-4.85Q188.42-7.07 185.20-8.65L185.20-8.65L185.20-8.65Q184.52-9.02 182.94-9.70L182.94-9.70L182.94-9.70Q178.61-11.50 177.19-13.08L177.19-13.08L177.19-13.08Q175.66-14.82 175.66-17.14L175.66-17.14L175.66-17.14Q175.66-20.78 179.67-22.25L179.67-22.25L179.67-22.25Q181.51-22.94 183.67-22.94L183.67-22.94L183.67-22.94Q187.15-22.94 189.69-21.46L189.69-21.46L189.69-21.46Q189.69-22.99 190.42-23.20L190.42-23.20L190.42-23.20Q190.74-23.26 191.11-23.26L191.11-23.26L191.11-16.66L189.74-16.66L189.74-16.66Q189.63-21.52 184.36-21.57L184.36-21.57L184.36-21.57Q180.40-21.57 179.46-19.25L179.46-19.25L179.46-19.25Q179.19-18.62 179.19-17.93L179.19-17.93L179.19-17.93Q179.19-15.66 182.46-14.08L182.46-14.08L182.46-14.08Q183.20-13.71 184.78-13.08L184.78-13.08L184.78-13.08Q189.05-11.34 190.48-9.76L190.48-9.76L190.48-9.76Q192.01-8.07 192.01-5.75L192.01-5.75L192.01-5.75Q192.01-1.48 187.47-0.05L187.47-0.05L187.47-0.05Q185.73 0.53 183.67 0.53L183.67 0.53L183.67 0.53Q179.88 0.47 177.08-1.37L177.08-1.37L177.08-1.37Q177.08 0 176.40 0.21L176.40 0.21L176.40 0.21Q176.08 0.26 175.66 0.26L175.66 0.26L175.66-7.75L177.13-7.75L177.13-7.75Q177.24-0.95 183.04-0.90" fill="#ee6123" stroke="none" stroke-width="none" transform="translate(-108.47500610351562,12.137199639214412)" style="transform:matrix(1, 0, 0, 1, -108.475, 12.1372);fill:rgb(238, 202, 119);animation-play-state:paused" ></path></g>
<g class="path" style="transform-origin:99.165px 0.932199px;animation-timing-function:linear;animation-play-state:paused;animation-name:static-0b6490c7-5f93-47b3-9efa-b027db71a69d;animation-iteration-count:infinite;animation-fill-mode:forwards;animation-duration:1s" ><path d="M200.71-11.23L200.71-11.23L200.71-11.23Q200.71-19.41 205.19-21.20L205.19-21.20L205.19-21.20Q206.35-21.62 207.62-21.62L207.62-21.62L207.62-21.62Q213.47-21.62 214.42-14.24L214.42-14.24L214.42-14.24Q214.58-12.97 214.58-11.44L214.58-11.44L214.58-11.44Q214.58-2.58 209.72-1.05L209.72-1.05L209.72-1.05Q208.78-0.79 207.77-0.79L207.77-0.79L207.77-0.79Q202.45-0.79 201.08-7.12L201.08-7.12L201.08-7.12Q200.71-8.96 200.71-11.23zM207.77-22.94L207.77-22.94L207.77-22.94Q202.71-22.94 199.34-19.46L199.34-19.46L199.34-19.46Q196.22-16.24 196.22-11.44L196.22-11.44L196.22-11.44Q196.22-4.80 201.08-1.48L201.08-1.48L201.08-1.48Q204.03 0.53 207.62 0.53L207.62 0.53L207.62 0.53Q212.68 0.53 216-3.06L216-3.06L216-3.06Q219.06-6.33 219.06-11.23L219.06-11.23L219.06-11.23Q219.06-17.88 214.15-21.09L214.15-21.09L214.15-21.09Q211.25-22.94 207.77-22.94" fill="#ee6123" stroke="none" stroke-width="none" transform="translate(-108.47500610351562,12.137199639214412)" style="transform:matrix(1, 0, 0, 1, -108.475, 12.1372);fill:rgb(125, 176, 220);animation-play-state:paused" ></path></g></g></g></g></svg>